<svg width="38" height="39" viewBox="0 0 38 39" fill="none" xmlns="http://www.w3.org/2000/svg">
<path d="M13.4913 21.25H1.45105C1.17105 21.25 0.984375 21.4367 0.984375 21.7167C1.26438 25.0768 4.06445 27.7835 7.51787 27.7835C10.9713 27.7835 13.7713 25.0768 14.0514 21.7167C13.958 21.4367 13.7714 21.25 13.4913 21.25ZM36.8252 21.25H24.7849C24.5049 21.25 24.3183 21.4367 24.3183 21.7167C24.5983 25.0768 27.3983 27.7835 30.8518 27.7835C34.3052 27.7835 37.1052 25.0768 37.3852 21.7167C37.2919 21.4367 37.1052 21.25 36.8252 21.25Z" fill="url(#paint0_linear)"/>
<path d="M31.8785 10.143C31.6918 9.76966 31.4118 9.583 31.0385 9.48966C30.9452 9.39632 30.8518 9.39633 30.6651 9.30299C28.2384 8.74298 25.345 8.36963 22.0783 8.18296C21.7049 7.43628 21.0516 6.78293 20.2116 6.50292L21.4249 4.82288C21.5183 4.63621 21.5183 4.54287 21.4249 4.3562L19.5582 0.62278C19.3715 0.249438 18.9049 0.249438 18.7182 0.62278L16.8515 4.3562C16.7581 4.54287 16.7581 4.72955 16.8515 4.82288L18.0648 6.50292C17.2248 6.78293 16.5715 7.43628 16.1981 8.18296C12.9314 8.36963 10.038 8.74298 7.61126 9.30299C7.51792 9.30299 7.33125 9.39632 7.23792 9.48966C6.86458 9.583 6.58457 9.76966 6.3979 10.143L2.75781 18.9166H5.27787L7.51793 13.5964L9.75798 18.9166H12.278L9.2913 11.823C11.2513 11.3564 13.6781 11.1697 16.1981 10.983C16.4781 11.543 16.8515 11.9164 17.3182 12.2897V30.5835H15.4514C14.4248 30.5835 13.5847 31.4235 13.5847 32.4502V33.3836H10.7847C9.75798 33.3836 8.91796 34.2236 8.91796 35.2503V37.5837C8.91796 37.8637 9.10463 38.0504 9.38464 38.0504H28.9851C29.2651 38.0504 29.4518 37.8637 29.4518 37.5837V35.2503C29.4518 34.2236 28.6118 33.3836 27.5851 33.3836H24.785V32.4502C24.785 31.4235 23.945 30.5835 22.9183 30.5835H21.0516V12.2897C21.5183 12.0097 21.8916 11.543 22.1716 10.983C24.785 11.0764 27.1184 11.3564 29.0784 11.823L26.0917 18.9166H28.6118L30.8518 13.5964L33.0919 18.9166H35.6119L31.8785 10.143Z" fill="url(#paint1_linear)"/>
<defs>
<linearGradient id="paint0_linear" x1="6.74401" y1="26.6031" x2="8.59935" y2="17.5066" gradientUnits="userSpaceOnUse">
<stop stop-color="#AD00E8"/>
<stop offset="1" stop-color="#E800A2"/>
</linearGradient>
<linearGradient id="paint1_linear" x1="7.95625" y1="31.2378" x2="34.3611" y2="10.9923" gradientUnits="userSpaceOnUse">
<stop stop-color="#AD00E8"/>
<stop offset="1" stop-color="#E800A2"/>
</linearGradient>
</defs>
</svg>
