<svg width="36" height="36" viewBox="0 0 36 36" fill="none" xmlns="http://www.w3.org/2000/svg">
<path d="M17.8491 0.55481C8.32888 0.55481 0.582031 8.30166 0.582031 17.8219C0.582031 27.3421 8.32888 35.089 17.8491 35.089C27.3693 35.089 35.1162 27.3421 35.1162 17.8219C35.1162 8.30166 27.3693 0.55481 17.8491 0.55481ZM25.6893 16.9819L14.9557 28.0888C14.489 28.5555 13.7423 28.0888 13.929 27.4355L16.1691 20.7153C16.2624 20.3419 15.9824 19.8753 15.6091 19.8753H10.3823C9.91559 19.8753 9.63558 19.4086 9.82225 19.0353L14.489 7.74165C14.5824 7.55497 14.769 7.36831 15.049 7.36831H22.0492C22.5159 7.36831 22.7959 7.83499 22.6092 8.30166L18.6891 15.0218C18.4091 15.3952 18.7825 15.9552 19.2491 15.9552H25.316C25.7826 15.9552 26.0626 16.6085 25.6893 16.9819Z" fill="url(#paint0_linear)"/>
<defs>
<linearGradient id="paint0_linear" x1="6.0463" y1="28.8498" x2="30.8839" y2="6.99269" gradientUnits="userSpaceOnUse">
<stop stop-color="#AD00E8"/>
<stop offset="1" stop-color="#E800A2"/>
</linearGradient>
</defs>
</svg>
