<svg width="40" height="39" viewBox="0 0 40 39" fill="none" xmlns="http://www.w3.org/2000/svg">
<path d="M13.3 29.5L8.60001 32.2C8.40001 32.3 8.3 32.5 8.3 32.7V38C8.3 38.5 8.80001 38.7 9.20001 38.5L13.9 35.8C14.1 35.7 14.2 35.5 14.2 35.3V30C14.2 29.6 13.7 29.3 13.3 29.5ZM5.60001 32.2L0.900009 29.5C0.500009 29.3 0 29.6 0 30V35.3C0 35.5 0.100003 35.7 0.300003 35.8L5 38.5C5.4 38.7 5.90001 38.4 5.90001 38V32.7C5.90001 32.5 5.80001 32.3 5.60001 32.2ZM12.1 26.5L7.40001 23.8C7.20001 23.7 7 23.7 6.8 23.8L2.10001 26.5C1.70001 26.7 1.70001 27.3 2.10001 27.5L6.8 30.2C7 30.3 7.20001 30.3 7.40001 30.2L12.1 27.5C12.5 27.3 12.5 26.7 12.1 26.5ZM30.6 32.2L25.9 29.5C25.5 29.3 25 29.6 25 30V35.3C25 35.5 25.1 35.7 25.3 35.8L30 38.5C30.4 38.7 30.9 38.4 30.9 38V32.7C30.9 32.5 30.8 32.3 30.6 32.2ZM38.3 29.5L33.6 32.2C33.4 32.3 33.3 32.5 33.3 32.7V38C33.3 38.5 33.8 38.7 34.2 38.5L38.9 35.8C39.1 35.7 39.2 35.5 39.2 35.3V30C39.2 29.6 38.7 29.3 38.3 29.5ZM37.1 26.5L32.4 23.8C32.2 23.7 32 23.7 31.8 23.8L27.1 26.5C26.7 26.7 26.7 27.3 27.1 27.5L31.8 30.2C32 30.3 32.2 30.3 32.4 30.2L37.1 27.5C37.5 27.3 37.5 26.7 37.1 26.5Z" fill="url(#paint0_linear)"/>
<path d="M24.1996 25.2L21.1996 23.4V20.6C21.1996 19.9 20.5996 19.3 19.8996 19.3C19.1996 19.3 18.5996 19.9 18.5996 20.6V23.4L15.6996 25.2C15.2996 25.4 15.0996 25.8 15.0996 26.3C15.0996 26.5 15.1996 26.7 15.2996 26.9C15.6996 27.5 16.3996 27.7 16.9996 27.3L19.8996 25.6L22.8996 27.4C23.0996 27.5 23.2996 27.6 23.4996 27.6C23.8996 27.6 24.2996 27.4 24.5996 27C24.8996 26.3 24.6996 25.6 24.1996 25.2ZM28.5996 7.6C28.5996 7.4 28.3996 7.3 28.1996 7.3H27.3996C27.0996 7.2 26.8996 7 26.7996 6.7C26.5996 6.2 26.3996 5.8 26.1996 5.3C26.0996 5.1 26.0996 5 26.2996 4.8L26.9996 4.1C27.0996 4 27.1996 3.7 26.9996 3.6C26.4996 2.9 25.8996 2.3 25.1996 1.8C25.0996 1.7 24.9996 1.7 24.9996 1.7C24.8996 1.7 24.7996 1.7 24.6996 1.8L23.9996 2.5C23.8996 2.6 23.7996 2.6 23.6996 2.6C23.5996 2.6 23.5996 2.6 23.4996 2.5C22.8996 2.2 22.1996 1.9 21.4996 1.7V0.5C21.4996 0.3 21.3996 0.0999985 21.1996 0.0999985C20.7996 -1.52737e-06 20.3996 0 19.8996 0C19.4996 0 19.0996 -1.52737e-06 18.5996 0.0999985C18.3996 0.0999985 18.2996 0.3 18.2996 0.5V1.7C17.5996 1.9 16.8996 2.1 16.2996 2.5C16.1996 2.5 16.1996 2.6 16.0996 2.6C15.9996 2.6 15.8996 2.6 15.7996 2.5L15.0996 1.8C14.9996 1.7 14.8996 1.7 14.7996 1.7C14.6996 1.7 14.5996 1.7 14.5996 1.8C13.8996 2.3 13.2996 2.9 12.7996 3.6C12.6996 3.8 12.6996 4 12.7996 4.1L13.4996 4.8C13.5996 4.9 13.5996 5.1 13.5996 5.3C13.3996 5.7 13.0996 6.2 12.9996 6.7C12.8996 7 12.6996 7.2 12.3996 7.3H11.5996C11.3996 7.3 11.1996 7.4 11.1996 7.6C11.0996 8 11.0996 8.4 11.0996 8.9C11.0996 9.3 11.0996 9.8 11.1996 10.2C11.1996 10.4 11.3996 10.5 11.5996 10.5H12.3996C12.6996 10.6 12.8996 10.8 12.9996 11.1C13.1996 11.6 13.3996 12 13.5996 12.5C13.6996 12.7 13.6996 12.8 13.4996 13L12.7996 13.7C12.6996 13.8 12.5996 14.1 12.7996 14.2C13.2996 14.9 13.8996 15.5 14.5996 16C14.6996 16.1 14.7996 16.1 14.7996 16.1C14.8996 16.1 14.9996 16.1 15.0996 16L15.7996 15.3C15.8996 15.2 15.9996 15.2 16.0996 15.2C16.1996 15.2 16.1996 15.2 16.2996 15.3C16.8996 15.6 17.5996 15.9 18.2996 16.1V17.3C18.2996 17.5 18.3996 17.7 18.5996 17.7C18.9996 17.8 19.3996 17.8 19.8996 17.8C20.2996 17.8 20.6996 17.8 21.1996 17.7C21.3996 17.7 21.4996 17.5 21.4996 17.3V16.1C22.1996 15.9 22.8996 15.7 23.4996 15.3C23.5996 15.3 23.5996 15.2 23.6996 15.2C23.7996 15.2 23.8996 15.2 23.9996 15.3L24.6996 16C24.7996 16.1 24.8996 16.1 24.9996 16.1C25.0996 16.1 25.1996 16.1 25.1996 16C25.8996 15.5 26.4996 14.9 26.9996 14.2C27.0996 14 27.0996 13.8 26.9996 13.7L26.2996 13C26.1996 12.9 26.1996 12.7 26.1996 12.5C26.3996 12.1 26.6996 11.6 26.7996 11.1C26.8996 10.8 27.0996 10.6 27.3996 10.5H28.1996C28.3996 10.5 28.5996 10.4 28.5996 10.2C28.6996 9.8 28.6996 9.4 28.6996 8.9C28.6996 8.5 28.5996 8 28.5996 7.6ZM22.2996 9.3C22.0996 10.3 21.2996 11.1 20.2996 11.3C20.1996 11.3 19.9996 11.3 19.8996 11.3C18.4996 11.3 17.2996 10 17.4996 8.5C17.6996 7.5 18.4996 6.7 19.4996 6.5C19.5996 6.5 19.7996 6.5 19.8996 6.5C21.3996 6.5 22.4996 7.8 22.2996 9.3Z" fill="url(#paint1_linear)"/>
<defs>
<linearGradient id="paint0_linear" x1="7.08936" y1="36.8387" x2="13.5512" y2="18.7255" gradientUnits="userSpaceOnUse">
<stop stop-color="#AD00E8"/>
<stop offset="1" stop-color="#E800A2"/>
</linearGradient>
<linearGradient id="paint1_linear" x1="14.2826" y1="24.3702" x2="31.9001" y2="12.4392" gradientUnits="userSpaceOnUse">
<stop stop-color="#AD00E8"/>
<stop offset="1" stop-color="#E800A2"/>
</linearGradient>
</defs>
</svg>
