<svg width="34" height="38" viewBox="0 0 34 38" fill="none" xmlns="http://www.w3.org/2000/svg">
<path d="M31.8353 7.60685C25.9552 6.9535 20.2617 2.47339 17.835 0.42001C17.1816 -0.140003 16.1549 -0.140003 15.5016 0.42001C13.1682 2.47339 7.47474 6.9535 1.5946 7.60685C0.661243 7.70018 -0.0854418 8.5402 0.00789379 9.47356C0.754578 27.394 12.5149 35.2342 15.7816 37.1009C16.3416 37.3809 16.995 37.3809 17.555 37.1009C20.9151 35.2342 32.6753 27.394 33.3287 9.47356C33.422 8.5402 32.7687 7.79352 31.8353 7.60685ZM16.715 27.5807C11.7682 27.5807 7.84808 23.5672 7.84808 18.7138C7.84808 13.8603 11.8615 9.8469 16.715 9.8469C21.5684 9.8469 25.5818 13.8603 25.5818 18.7138C25.5818 23.5672 21.6617 27.5807 16.715 27.5807Z" fill="url(#paint0_linear)"/>
<path d="M20.6346 14.2336L15.3145 19.4604L12.7944 16.9404L10.9277 18.7137L13.5411 21.3271L15.4078 23.1939L17.1812 21.3271L22.5013 16.1004L20.6346 14.2336Z" fill="url(#paint1_linear)"/>
<defs>
<linearGradient id="paint0_linear" x1="5.27493" y1="30.57" x2="31.5656" y2="9.89805" gradientUnits="userSpaceOnUse">
<stop stop-color="#AD00E8"/>
<stop offset="1" stop-color="#E800A2"/>
</linearGradient>
<linearGradient id="paint1_linear" x1="12.759" y1="21.575" x2="19.2031" y2="14.2502" gradientUnits="userSpaceOnUse">
<stop stop-color="#E800AD"/>
<stop offset="1" stop-color="#E800A2"/>
</linearGradient>
</defs>
</svg>
